<svg width="24" height="24" viewBox="0 0 24 24" fill="none" xmlns="http://www.w3.org/2000/svg">
<mask id="mask0_782_24270" style="mask-type:alpha" maskUnits="userSpaceOnUse" x="0" y="0" width="24" height="24">
<rect width="24" height="24" fill="#D9D9D9"/>
</mask>
<g mask="url(#mask0_782_24270)">
<path d="M12 10H17V8H12V10ZM12 16H17V14H12V16ZM9 11C9.55 11 10.021 10.804 10.413 10.412C10.8043 10.0207 11 9.55 11 9C11 8.45 10.8043 7.979 10.413 7.587C10.021 7.19567 9.55 7 9 7C8.45 7 7.97933 7.19567 7.588 7.587C7.196 7.979 7 8.45 7 9C7 9.55 7.196 10.0207 7.588 10.412C7.97933 10.804 8.45 11 9 11ZM9 17C9.55 17 10.021 16.8043 10.413 16.413C10.8043 16.021 11 15.55 11 15C11 14.45 10.8043 13.979 10.413 13.587C10.021 13.1957 9.55 13 9 13C8.45 13 7.97933 13.1957 7.588 13.587C7.196 13.979 7 14.45 7 15C7 15.55 7.196 16.021 7.588 16.413C7.97933 16.8043 8.45 17 9 17ZM5 21C4.45 21 3.979 20.8043 3.587 20.413C3.19567 20.021 3 19.55 3 19V5C3 4.45 3.19567 3.979 3.587 3.587C3.979 3.19567 4.45 3 5 3H19C19.55 3 20.021 3.19567 20.413 3.587C20.8043 3.979 21 4.45 21 5V19C21 19.55 20.8043 20.021 20.413 20.413C20.021 20.8043 19.55 21 19 21H5ZM5 19H19V5H5V19Z" fill="#D7BFFF"/>
</g>
</svg>
