<svg width="16" height="18" viewBox="0 0 16 18" fill="none" xmlns="http://www.w3.org/2000/svg">
<path d="M3.4 17.0001C3.01667 17.0001 2.6875 16.8626 2.4125 16.5876C2.1375 16.3126 2 15.9918 2 15.6251V2.6501H1V1.8751H4.85V1.2251H11.15V1.8751H15V2.6501H14V15.6251C14 16.0084 13.8625 16.3334 13.5875 16.6001C13.3125 16.8668 12.9833 17.0001 12.6 17.0001H3.4ZM13.225 2.6501H2.775V15.6251C2.775 15.7918 2.8375 15.9334 2.9625 16.0501C3.0875 16.1668 3.23333 16.2251 3.4 16.2251H12.6C12.7667 16.2251 12.9125 16.1626 13.0375 16.0376C13.1625 15.9126 13.225 15.7751 13.225 15.6251V2.6501ZM5.875 14.1501H6.65V4.7001H5.875V14.1501ZM9.35 14.1501H10.125V4.7001H9.35V14.1501ZM2.775 2.6501V16.2251V15.6251V2.6501Z" fill="#6037A4" stroke="#6037A4" stroke-width="0.5"/>
</svg>
