<svg width="24" height="25" viewBox="0 0 24 25" fill="none" xmlns="http://www.w3.org/2000/svg">
<path d="M12 21.5V19.725L17.4 14.325L19.175 16.1L13.775 21.5H12ZM3 16.25V14.75H10.5V16.25H3ZM20.25 15.025L18.475 13.25L19.2 12.525C19.3333 12.3917 19.5083 12.325 19.725 12.325C19.9417 12.325 20.1167 12.3917 20.25 12.525L20.975 13.25C21.1083 13.3833 21.175 13.5583 21.175 13.775C21.175 13.9917 21.1083 14.1667 20.975 14.3L20.25 15.025ZM3 12.125V10.625H14.75V12.125H3ZM3 8V6.5H14.75V8H3Z" fill="#6037A4"/>
</svg>
