<svg width="101" height="31" viewBox="0 0 101 31" fill="none" xmlns="http://www.w3.org/2000/svg">
<path fill-rule="evenodd" clip-rule="evenodd" d="M8.07454 21.3147C4.80817 21.3147 2.60613 18.8935 2.60613 15.6285C2.60613 12.3634 4.80817 9.94201 8.07454 9.94201C11.3045 9.94201 13.47 12.3634 13.47 15.6285C13.47 18.8935 11.3045 21.3147 8.07454 21.3147ZM41.7438 23.5527C43.6156 23.5527 44.79 22.7456 45.4506 22.0485L44.0559 20.4344C43.5788 20.8745 43.0282 21.3147 42.0005 21.3147C40.8996 21.3147 40.2023 20.6911 40.2023 18.6733V10.1987H44.4596V8.03442H40.2023V0.11014H37.6697V8.03442H35.3207V10.1987H37.6697V18.6368C37.6697 22.2319 39.4313 23.5527 41.7438 23.5527ZM48.7838 3.63196C49.7378 3.63196 50.619 2.89822 50.619 1.83422C50.619 0.770503 49.7378 0 48.7838 0C47.8294 0 46.9487 0.770503 46.9487 1.83422C46.9487 2.89822 47.8294 3.63196 48.7838 3.63196ZM76.8299 23.5527C80.9773 23.5527 83.5833 20.9479 83.5833 16.5089V8.03442H81.0507V16.3988C81.0507 19.5539 79.8028 21.2783 76.8667 21.2783C73.967 21.2783 72.7191 19.5539 72.7191 16.3988V8.03442H70.1501V16.5089C70.1501 20.9479 72.6459 23.5527 76.8299 23.5527ZM88.1095 14.5278C88.5131 11.7396 90.4583 9.86878 93.3578 9.86878C96.5509 9.86878 98.2025 11.923 98.4227 14.5278H88.1095ZM88.0725 16.4722H100.992C101.175 11.4463 98.2391 7.70417 93.3578 7.70417C88.9168 7.70417 85.5035 11.1892 85.5035 15.6285C85.5035 20.0675 88.7331 23.516 93.7248 23.516C96.6978 23.516 98.7164 22.4523 100.111 20.8745L98.5328 19.3338C97.5419 20.4344 96.0004 21.3515 93.7248 21.3515C90.3848 21.3515 88.4029 19.3705 88.0725 16.4722ZM27.2712 21.3147C24.0047 21.3147 21.8026 18.8935 21.8026 15.6285C21.8026 12.3634 24.0047 9.94201 27.2712 9.94201C30.501 9.94201 32.6666 12.3634 32.6666 15.6285C32.6666 18.8935 30.501 21.3147 27.2712 21.3147ZM59.9712 21.3147C63.2375 21.3147 65.4397 18.8935 65.4397 15.6285C65.4397 12.3634 63.2375 9.94201 59.9712 9.94201C56.7413 9.94201 54.5757 12.3634 54.5757 15.6285C54.5757 18.8935 56.7413 21.3147 59.9712 21.3147ZM69.5836 28.432V31H68.0457H65.5197H65.5133V29.0538V23.4931V21.4264C64.0807 22.7302 62.1432 23.516 59.9712 23.516C55.4568 23.516 51.97 20.0675 51.97 15.6285C51.97 11.1892 55.4568 7.70417 59.9712 7.70417C64.3854 7.70417 67.8326 10.983 68.036 15.2306H68.0457V15.6285V28.432H69.5836ZM47.4991 10.6369H46.079V8.06893H47.4991V8.03442H50.0683V8.06893V10.6369V23.2225H47.4991V10.6369ZM8.07454 23.516C12.1498 23.516 15.3868 20.7059 15.9784 16.8941H19.1968V28.432H17.6587V31H19.1968H21.7226H21.7291V29.0538V23.4931V21.4264C23.1617 22.7302 25.0993 23.516 27.2712 23.516C31.7857 23.516 35.2723 20.0675 35.2723 15.6285C35.2723 11.1892 31.7857 7.70417 27.2712 7.70417C23.1761 7.70417 19.9134 10.5263 19.3009 14.3259H15.9727C15.3663 10.5262 12.1369 7.70417 8.07454 7.70417C3.52363 7.70417 0 11.1892 0 15.6285C0 20.0675 3.52363 23.516 8.07454 23.516Z" fill="#B68BFF"/>
</svg>
